<svg width="32" height="32" viewBox="0 0 32 32" fill="none" xmlns="http://www.w3.org/2000/svg">
<path fill-rule="evenodd" clip-rule="evenodd" d="M15.2927 6.21345C15.6832 5.82293 16.3164 5.82293 16.7069 6.21345L17.1429 6.64941C17.5332 7.03969 17.5334 7.67236 17.1435 8.06299L10.5299 14.6884H25.4937C26.0459 14.6884 26.4937 15.1362 26.4937 15.6884V16.3119C26.4937 16.8642 26.0459 17.3119 25.4937 17.3119H10.5299L17.1435 23.9374C17.5334 24.328 17.5332 24.9607 17.1429 25.3509L16.7069 25.7869C16.3164 26.1774 15.6832 26.1774 15.2927 25.7869L5.506 16.0002L15.2927 6.21345Z" fill="black"/>
<mask id="mask0_14_162" style="mask-type:luminance" maskUnits="userSpaceOnUse" x="5" y="5" width="22" height="22">
<path fill-rule="evenodd" clip-rule="evenodd" d="M15.2927 6.21345C15.6832 5.82293 16.3164 5.82293 16.7069 6.21345L17.1429 6.64941C17.5332 7.03969 17.5334 7.67236 17.1435 8.06299L10.5299 14.6884H25.4937C26.0459 14.6884 26.4937 15.1362 26.4937 15.6884V16.3119C26.4937 16.8642 26.0459 17.3119 25.4937 17.3119H10.5299L17.1435 23.9374C17.5334 24.328 17.5332 24.9607 17.1429 25.3509L16.7069 25.7869C16.3164 26.1774 15.6832 26.1774 15.2927 25.7869L5.506 16.0002L15.2927 6.21345Z" fill="white"/>
</mask>
<g mask="url(#mask0_14_162)">
<rect width="31.4815" height="31.4815" transform="matrix(-1 0 0 1 31.7407 0.259277)" fill="white"/>
</g>
</svg>
