<svg width="20" height="20" viewBox="0 0 20 20" fill="none" xmlns="http://www.w3.org/2000/svg">
<mask id="mask0_4_137" style="mask-type:luminance" maskUnits="userSpaceOnUse" x="4" y="4" width="12" height="12">
<path fill-rule="evenodd" clip-rule="evenodd" d="M15.2457 5.92925C15.5701 5.60478 15.5701 5.07872 15.2457 4.75425C14.9212 4.42978 14.3951 4.42978 14.0707 4.75425L9.99984 8.82508L5.929 4.75425C5.60454 4.42978 5.07847 4.42978 4.754 4.75425C4.42954 5.07872 4.42954 5.60478 4.754 5.92925L8.82484 10.0001L4.754 14.0709C4.42954 14.3954 4.42954 14.9214 4.754 15.2459C5.07847 15.5704 5.60454 15.5704 5.929 15.2459L9.99984 11.1751L14.0707 15.2459C14.3951 15.5704 14.9212 15.5704 15.2457 15.2459C15.5701 14.9214 15.5701 14.3954 15.2457 14.0709L11.1748 10.0001L15.2457 5.92925Z" fill="white"/>
</mask>
<g mask="url(#mask0_4_137)">
<rect width="20" height="20" fill="#878F92"/>
</g>
</svg>
